<svg width="380" height="35" viewBox="0 0 380 35" fill="none" xmlns="http://www.w3.org/2000/svg">
<path d="M162.878 17.7241C162.878 17.7241 162.288 17.7519 161.188 17.7983C160.088 17.8446 158.478 17.9372 156.418 17.9928C152.308 18.1132 146.448 18.3633 139.408 18.5208C135.888 18.6042 132.078 18.6968 128.038 18.7616C124.008 18.8172 119.748 18.8821 115.348 18.9469C110.948 18.9839 106.398 19.0581 101.778 19.0673C97.1583 19.0858 92.4683 19.0951 87.7683 19.1136C83.0783 19.0951 78.3783 19.0858 73.7583 19.0673C69.1383 19.0673 64.5883 18.9839 60.1883 18.9469C51.3883 18.8543 43.1783 18.6968 36.1383 18.5208C29.0983 18.3633 23.2283 18.1132 19.1283 17.9928C17.0783 17.9372 15.4583 17.8446 14.3583 17.7983C13.2583 17.7519 12.6683 17.7241 12.6683 17.7241C12.6683 17.7241 13.2583 17.6964 14.3583 17.65C15.4583 17.6037 17.0683 17.5111 19.1283 17.4555C23.2383 17.3351 29.0983 17.085 36.1383 16.9275C43.1783 16.7515 51.3883 16.6033 60.1883 16.5014C64.5883 16.4643 69.1383 16.381 73.7583 16.381C78.3783 16.3624 83.0683 16.3532 87.7683 16.3347C92.4583 16.3532 97.1583 16.3624 101.778 16.381C106.398 16.381 110.948 16.4643 115.348 16.5014C119.748 16.5662 123.998 16.6311 128.038 16.6867C132.068 16.7422 135.888 16.8349 139.408 16.9275C146.448 17.085 152.318 17.3351 156.418 17.4555C158.468 17.5111 160.088 17.6037 161.188 17.65C162.288 17.6964 162.878 17.7241 162.878 17.7241Z" fill="#FFE55E"/>
<path d="M20.9283 17.7241L24.6383 22.6892L0.718323 17.7241L24.6383 12.7497L20.9283 17.7241Z" fill="#FFE55E"/>
<path d="M32.4783 17.7241L35.2883 21.4757L17.1883 17.7241L35.2883 13.9632L32.4783 17.7241Z" fill="#FFE55E"/>
<path d="M64.8983 17.863C66.1583 16.7051 67.5583 15.6676 69.0283 14.732C69.7583 14.2596 70.5183 13.815 71.2883 13.3981C72.0583 12.972 72.8383 12.5737 73.6383 12.2032C74.4383 11.8234 75.2583 11.4806 76.0783 11.1564C76.9083 10.8507 77.7483 10.5358 78.6083 10.2949C79.4583 10.0263 80.3283 9.81325 81.2083 9.60946L81.5383 9.53536C81.6083 9.51683 81.6083 9.51683 81.7483 9.48904L81.9083 9.46125L82.5683 9.36862C83.0183 9.3223 83.4283 9.21114 83.9083 9.21114C84.8583 9.19262 85.8183 9.16483 86.7183 9.29451C87.6483 9.35009 88.5383 9.57241 89.4383 9.73915C90.3183 9.97999 91.2083 10.193 92.0583 10.5173L93.3383 10.9804L94.5683 11.527C95.3883 11.8975 96.1783 12.3051 96.9683 12.7312C97.7483 13.1573 98.5083 13.6112 99.2583 14.0929C99.9983 14.5746 100.738 15.0655 101.448 15.5843C102.158 16.1123 102.858 16.6218 103.548 17.2331L103.498 17.1868C103.828 17.4184 104.248 17.6963 104.648 17.9186C105.058 18.1595 105.488 18.3632 105.918 18.5763C106.788 18.9746 107.688 19.3266 108.608 19.5953C109.078 19.7157 109.538 19.8639 110.008 19.9565C110.488 20.0399 110.958 20.1511 111.438 20.2159L112.878 20.3641C113.358 20.3919 113.848 20.3734 114.328 20.3919C114.808 20.429 115.298 20.3456 115.778 20.3178C116.258 20.2807 116.748 20.253 117.218 20.1511L118.648 19.8917L120.038 19.4841C120.508 19.3544 120.968 19.2155 121.408 19.0117L122.748 18.4651C123.198 18.2891 123.608 18.0205 124.038 17.8075L125.318 17.122L125.208 18.53C124.618 18.0761 123.928 17.5851 123.228 17.1683C122.538 16.7236 121.798 16.3439 121.078 15.9455C120.318 15.6028 119.588 15.2045 118.808 14.8988C118.028 14.5931 117.268 14.2411 116.468 14.0003C115.668 13.7409 114.888 13.4259 114.058 13.2407C113.238 13.0461 112.438 12.7682 111.598 12.6293C110.768 12.4811 109.938 12.3051 109.098 12.1754L106.558 11.8975C105.708 11.7863 104.858 11.8234 104.008 11.7771L102.728 11.74C102.298 11.74 101.878 11.7863 101.448 11.8049L98.8783 11.9438L96.3283 12.2865L95.0483 12.4625L93.7883 12.7404L91.2683 13.3148C90.4283 13.4908 89.6283 13.815 88.7983 14.0466L86.3283 14.8062L88.7183 13.8428C89.5183 13.5371 90.3083 13.1666 91.1383 12.935L93.6383 12.2032L94.8883 11.8419L96.1683 11.5825L98.7383 11.0731C99.6083 10.9619 100.478 10.8878 101.358 10.7952C101.798 10.7581 102.228 10.7025 102.668 10.6747L103.988 10.6562C104.868 10.6562 105.758 10.5914 106.628 10.6562L109.268 10.8507C110.148 10.9619 111.018 11.1101 111.888 11.2398C112.768 11.351 113.608 11.6103 114.478 11.7956C115.348 11.9716 116.178 12.2588 117.018 12.5181C117.868 12.759 118.678 13.111 119.498 13.4167C120.328 13.7224 121.098 14.1207 121.908 14.4727C122.678 14.8803 123.468 15.2601 124.218 15.7232C124.988 16.1679 125.698 16.631 126.448 17.1961L127.488 17.9742L126.338 18.6041L124.968 19.3544C124.508 19.5953 124.068 19.8732 123.578 20.0677L122.118 20.6791C121.638 20.9014 121.138 21.0589 120.618 21.2071L119.088 21.661L117.508 21.9574C116.988 22.0778 116.448 22.1149 115.908 22.1519C115.368 22.189 114.838 22.2723 114.298 22.2446C113.758 22.2353 113.218 22.2446 112.688 22.2075L111.088 22.0315C110.558 21.9481 110.038 21.8277 109.508 21.7351C108.978 21.6332 108.478 21.4572 107.958 21.3275C106.938 21.0125 105.948 20.6327 104.988 20.1788C104.518 19.9473 104.038 19.7064 103.588 19.4378C103.118 19.1692 102.698 18.9005 102.218 18.5485H102.198L102.158 18.5022C101.568 17.9742 100.888 17.4369 100.228 16.9274C99.5583 16.418 98.8683 15.927 98.1683 15.4546C97.4583 14.9822 96.7483 14.5375 96.0083 14.1114C95.2683 13.6946 94.5283 13.287 93.7583 12.9257L92.6083 12.3792L91.4283 11.9068C90.6383 11.5825 89.8183 11.351 89.0083 11.1008C88.1783 10.9156 87.3583 10.684 86.5083 10.6099C85.6583 10.4524 84.8383 10.4709 84.0183 10.4432C83.6083 10.4154 83.1483 10.508 82.7083 10.5358L82.0483 10.6006L81.8783 10.6192C81.8783 10.6192 81.7983 10.6377 81.7583 10.6377L81.4383 10.7025C80.5883 10.86 79.7283 11.0267 78.8883 11.2583C78.0383 11.4436 77.2183 11.7308 76.3783 11.9716C75.5583 12.2495 74.7283 12.5274 73.9283 12.8516C73.1183 13.1666 72.3183 13.5093 71.5383 13.8798C70.7483 14.2504 69.9783 14.6394 69.2183 15.0655C67.7083 15.9177 66.2183 16.807 64.8583 17.863H64.8983Z" fill="#FFE55E"/>
<path d="M64.8984 17.5759C66.2684 18.6227 67.7584 19.5212 69.2584 20.3735C70.0184 20.7903 70.7884 21.1886 71.5784 21.5592C72.3584 21.9297 73.1584 22.2724 73.9684 22.5874C74.7784 22.9116 75.5984 23.1895 76.4184 23.4674C77.2584 23.7082 78.0784 23.9954 78.9284 24.1807C79.7684 24.403 80.6184 24.579 81.4784 24.7365L81.7984 24.8013C81.7984 24.8013 81.9484 24.8291 81.9184 24.8198L82.0884 24.8383L82.7484 24.9032C83.1784 24.931 83.6484 25.0236 84.0584 24.9958C84.8884 24.968 85.6984 24.9866 86.5484 24.8291C87.3984 24.755 88.2184 24.5234 89.0484 24.3381C89.8584 24.088 90.6784 23.8657 91.4684 23.5322L92.6484 23.0598L93.7984 22.5133C94.5684 22.152 95.3184 21.7444 96.0484 21.3276C96.7884 20.9015 97.5084 20.4568 98.2084 19.9844C98.9084 19.512 99.5984 19.021 100.268 18.5115C100.928 18.0021 101.608 17.4648 102.198 16.9368L102.238 16.909H102.258C102.738 16.5477 103.158 16.2791 103.628 16.0105C104.088 15.7418 104.558 15.5102 105.028 15.2694C105.988 14.8155 106.978 14.4357 107.998 14.1208C108.518 13.9818 109.018 13.8151 109.548 13.7132C110.078 13.6113 110.598 13.4908 111.128 13.4167L112.728 13.2407C113.268 13.213 113.808 13.213 114.338 13.2037C114.878 13.1759 115.408 13.2593 115.948 13.2963C116.488 13.3426 117.018 13.3704 117.548 13.4908L119.128 13.7873L120.658 14.2412C121.168 14.3801 121.678 14.5469 122.158 14.7692L123.618 15.3806C124.108 15.5751 124.538 15.8622 125.008 16.0938L126.378 16.8442L127.528 17.4741L126.488 18.2522C125.738 18.8172 125.028 19.2804 124.258 19.725C123.508 20.1882 122.718 20.568 121.948 20.9756C121.148 21.3276 120.368 21.7259 119.538 22.0316C118.718 22.3373 117.908 22.6893 117.058 22.9301C116.218 23.1802 115.378 23.4766 114.518 23.6526C113.658 23.8287 112.808 24.0973 111.928 24.2084C111.058 24.3381 110.188 24.4863 109.308 24.5975L106.668 24.792C105.788 24.8661 104.908 24.792 104.028 24.792L102.708 24.7735C102.268 24.7457 101.828 24.6901 101.398 24.6531C100.528 24.5604 99.6484 24.4863 98.7784 24.3752L96.2084 23.8657L94.9284 23.6063L93.6784 23.2451L91.1784 22.5133C90.3484 22.2817 89.5584 21.9112 88.7584 21.6055L86.3684 20.6421L88.8384 21.4017C89.6684 21.6333 90.4584 21.9575 91.3084 22.1335L93.8284 22.7078L95.0884 22.9857L96.3684 23.1617L98.9184 23.5044L101.488 23.6434C101.918 23.6619 102.338 23.699 102.768 23.7082L104.048 23.6712C104.898 23.6249 105.758 23.6619 106.598 23.5508L109.138 23.2729C109.978 23.1432 110.808 22.9672 111.638 22.819C112.478 22.6893 113.278 22.4114 114.098 22.2076C114.918 22.0223 115.708 21.7074 116.508 21.448C117.318 21.2071 118.078 20.8551 118.848 20.5495C119.628 20.2438 120.358 19.8454 121.118 19.5027C121.838 19.1044 122.578 18.7246 123.268 18.28C123.968 17.8631 124.658 17.3722 125.248 16.9183L125.358 18.3263L124.078 17.6408C123.648 17.4277 123.238 17.1591 122.788 16.9831L121.448 16.4366C121.008 16.2328 120.548 16.0938 120.078 15.9641L118.688 15.5566L117.258 15.2972C116.788 15.186 116.298 15.1675 115.818 15.1304C115.338 15.1027 114.858 15.0286 114.368 15.0563C113.888 15.0749 113.398 15.0563 112.918 15.0841L111.478 15.2323C110.998 15.2972 110.528 15.4083 110.048 15.4917C109.568 15.5843 109.118 15.7326 108.648 15.853C107.728 16.1309 106.828 16.4736 105.958 16.8719C105.528 17.085 105.098 17.2888 104.688 17.5296C104.278 17.752 103.868 18.0206 103.538 18.2614L103.588 18.2151C102.898 18.8265 102.208 19.336 101.488 19.864C100.778 20.3827 100.038 20.8737 99.2984 21.3554C98.5484 21.8278 97.7884 22.2817 97.0084 22.7171C96.2284 23.1432 95.4284 23.56 94.6084 23.9213L93.3784 24.4678L92.0984 24.931C91.2584 25.2552 90.3584 25.4682 89.4784 25.7091C88.5784 25.8851 87.6884 26.0981 86.7584 26.1537C85.8584 26.2834 84.8884 26.2556 83.9484 26.2371C83.4684 26.2371 83.0584 26.1259 82.6084 26.0796L81.9484 25.987L81.7884 25.9592C81.6484 25.9407 81.6584 25.9314 81.5784 25.9129L81.2484 25.8388C80.3684 25.635 79.4984 25.4219 78.6484 25.1533C77.7884 24.9125 76.9484 24.5975 76.1184 24.2918C75.2984 23.9583 74.4684 23.6249 73.6784 23.2451C72.8784 22.8745 72.0884 22.4762 71.3284 22.0501C70.5584 21.6333 69.8084 21.1794 69.0684 20.7162C67.5984 19.7806 66.1984 18.7431 64.9384 17.5852L64.8984 17.5759Z" fill="#FFE55E"/>
<path d="M190.928 0.864962C190.698 1.3096 190.498 1.7635 190.238 2.19887C189.998 2.64351 189.728 3.06962 189.448 3.48647C188.878 4.32016 188.248 5.13533 187.548 5.88565C186.168 7.41409 184.558 8.75726 182.838 9.98001C181.118 11.1935 179.268 12.231 177.348 13.1573C176.388 13.6205 175.418 14.0558 174.418 14.4449C173.918 14.6394 173.418 14.8247 172.908 15.0007C172.388 15.1767 171.898 15.3434 171.338 15.5009L171.228 15.5287H171.048L165.238 15.6677L159.428 15.751L154.838 15.8159L158.688 13.4259C160.488 12.3051 161.988 10.8508 163.028 9.14632C163.548 8.2941 163.948 7.37704 164.228 6.43218C164.368 5.95976 164.478 5.47807 164.548 4.99638C164.588 4.75553 164.608 4.51469 164.628 4.28311C164.648 4.06079 164.648 3.78289 164.648 3.63468L164.578 2.19887L166.128 2.18035C168.688 2.15256 171.248 2.18035 173.808 2.18961L181.488 2.22666L184.818 2.24519L182.548 4.43132C181.818 5.13533 181.138 5.64481 180.388 6.18207C179.648 6.70082 178.878 7.17324 178.088 7.60862C176.498 8.47936 174.808 9.18337 173.058 9.70212C171.298 10.2116 169.478 10.5173 167.658 10.6377C167.198 10.6748 166.748 10.6748 166.288 10.6933H165.608H165.438H165.348H165.338C165.498 10.6933 165.378 10.6933 165.408 10.6933H165.388H165.348L165.058 10.7118C164.238 10.7767 163.398 10.8878 162.568 11.0175C159.248 11.5733 155.978 12.6015 153.128 14.306C151.718 15.1674 150.408 16.1957 149.308 17.4092C148.768 18.0205 148.258 18.669 147.828 19.3637C147.378 20.0492 147.018 20.781 146.688 21.5313C146.908 20.7532 147.168 19.9658 147.528 19.2247C147.858 18.4652 148.318 17.7519 148.798 17.0571C149.788 15.6862 151.038 14.4634 152.458 13.4352C155.288 11.3602 158.688 10.0541 162.168 9.23895C163.048 9.03516 163.928 8.86842 164.838 8.75726L165.198 8.72021L165.598 8.70168L166.218 8.67389C166.628 8.63684 167.048 8.61831 167.458 8.56273C169.108 8.37747 170.718 8.0162 172.268 7.48819C173.818 6.97872 175.308 6.3025 176.698 5.48733C177.388 5.07975 178.058 4.63511 178.698 4.16268C179.318 3.69952 179.968 3.15299 180.428 2.68056L181.498 4.88522L173.818 4.92227C171.258 4.93153 168.698 4.95932 166.138 4.93153L167.618 3.4772C167.628 3.88479 167.618 4.14416 167.588 4.46837C167.558 4.77406 167.528 5.07975 167.478 5.37617C167.378 5.97828 167.238 6.56187 167.068 7.14545C166.718 8.30336 166.208 9.42422 165.558 10.4617C164.268 12.5645 162.338 14.2874 160.188 15.5287L159.448 13.2036L165.258 13.287L171.068 13.4259L170.778 13.463C171.228 13.3611 171.748 13.2129 172.228 13.0739C172.718 12.935 173.208 12.7775 173.688 12.62C174.658 12.2958 175.628 11.9531 176.578 11.5733C178.478 10.8137 180.318 9.91517 182.078 8.89621C185.588 6.85829 188.758 4.21826 190.958 0.846436L190.928 0.864962Z" fill="#FFE55E"/>
<path d="M190.928 34.5739C188.728 31.2021 185.558 28.562 182.048 26.5241C180.288 25.5052 178.448 24.6066 176.548 23.847C175.598 23.4673 174.628 23.1245 173.658 22.8003C173.168 22.6428 172.688 22.4853 172.198 22.3464C171.718 22.2074 171.208 22.0685 170.748 21.9573L171.038 21.9944L165.228 22.1333L159.418 22.2167L160.158 19.8916C162.318 21.1422 164.238 22.8559 165.528 24.9586C166.188 25.9961 166.688 27.117 167.038 28.2749C167.218 28.8585 167.348 29.4421 167.448 30.0442C167.498 30.3406 167.528 30.6463 167.558 30.952C167.578 31.2762 167.598 31.5356 167.588 31.9431L166.108 30.4888C168.668 30.4703 171.228 30.4888 173.788 30.4981L181.468 30.5351L180.398 32.7398C179.938 32.2673 179.288 31.7208 178.668 31.2577C178.038 30.7852 177.368 30.3406 176.668 29.933C175.278 29.1178 173.788 28.4416 172.238 27.9321C170.688 27.4041 169.078 27.0429 167.428 26.8576C167.018 26.802 166.598 26.7835 166.188 26.7464L165.568 26.7187L165.168 26.7001L164.808 26.6631C163.898 26.5519 163.018 26.3852 162.138 26.1814C158.658 25.3662 155.258 24.0601 152.428 21.9851C151.008 20.9569 149.758 19.7434 148.768 18.3632C148.288 17.6684 147.828 16.9552 147.498 16.1956C147.138 15.4453 146.878 14.6672 146.658 13.889C146.988 14.6394 147.348 15.3712 147.798 16.0566C148.228 16.7514 148.738 17.3906 149.278 18.0112C150.378 19.2247 151.688 20.2529 153.098 21.1144C155.948 22.8188 159.218 23.8563 162.538 24.4028C163.368 24.5325 164.208 24.6437 165.028 24.7085L165.318 24.7271H165.358H165.378C165.348 24.7271 165.468 24.7271 165.308 24.7271H165.408H165.578H166.258C166.718 24.7363 167.168 24.7456 167.628 24.7826C169.448 24.9031 171.268 25.2087 173.028 25.7182C174.778 26.237 176.468 26.941 178.058 27.8117C178.848 28.2471 179.618 28.7195 180.358 29.2383C181.108 29.7755 181.778 30.285 182.518 30.989L184.788 33.1751L181.458 33.1937L173.778 33.2307C171.218 33.24 168.658 33.2678 166.098 33.24L164.548 33.2215L164.618 31.7857C164.618 31.6467 164.618 31.3596 164.598 31.1372C164.578 30.8964 164.558 30.6555 164.518 30.424C164.448 29.9423 164.338 29.4606 164.198 28.9882C163.918 28.0433 163.518 27.1262 162.998 26.274C161.958 24.5696 160.458 23.1152 158.658 21.9944L154.808 19.6045L159.398 19.6693L165.208 19.7527L171.018 19.8916H171.198L171.308 19.9287C171.868 20.0862 172.368 20.2529 172.878 20.4289C173.388 20.6049 173.888 20.7902 174.388 20.9847C175.388 21.3738 176.358 21.8091 177.318 22.2723C179.228 23.1986 181.088 24.2361 182.808 25.4496C184.518 26.6631 186.138 28.0062 187.518 29.544C188.218 30.3035 188.848 31.1094 189.418 31.9431C189.698 32.3692 189.968 32.7954 190.208 33.2307C190.468 33.6661 190.668 34.12 190.898 34.5646L190.928 34.5739Z" fill="#FFE55E"/>
<path d="M144.068 17.7242C144.068 18.9098 143.028 19.8732 141.748 19.8732C140.468 19.8732 139.428 18.9098 139.428 17.7242C139.428 16.5385 140.468 15.5751 141.748 15.5751C143.028 15.5751 144.068 16.5385 144.068 17.7242Z" fill="#FFE55E"/>
<path d="M134.768 19.1599C135.624 19.1599 136.318 18.517 136.318 17.7241C136.318 16.9311 135.624 16.2883 134.768 16.2883C133.912 16.2883 133.218 16.9311 133.218 17.7241C133.218 18.517 133.912 19.1599 134.768 19.1599Z" fill="#FFE55E"/>
<path d="M217.128 17.7241C217.128 17.7241 217.718 17.6964 218.818 17.65C219.918 17.6037 221.528 17.5111 223.588 17.4555C227.698 17.3351 233.558 17.085 240.598 16.9275C244.118 16.8441 247.928 16.7515 251.968 16.6867C255.998 16.6311 260.258 16.5662 264.658 16.5014C269.058 16.4643 273.608 16.3902 278.228 16.381C282.848 16.3624 287.538 16.3532 292.238 16.3347C296.928 16.3532 301.628 16.3624 306.248 16.381C310.868 16.381 315.418 16.4643 319.818 16.5014C328.618 16.594 336.828 16.7515 343.868 16.9275C350.908 17.085 356.778 17.3351 360.878 17.4555C362.928 17.5111 364.548 17.6037 365.648 17.65C366.748 17.6964 367.338 17.7241 367.338 17.7241C367.338 17.7241 366.748 17.7519 365.648 17.7983C364.548 17.8446 362.938 17.9372 360.878 17.9928C356.768 18.1132 350.908 18.3633 343.868 18.5208C336.828 18.6968 328.618 18.845 319.818 18.9469C315.418 18.9839 310.868 19.0673 306.248 19.0673C301.628 19.0858 296.938 19.0951 292.238 19.1136C287.548 19.0951 282.848 19.0858 278.228 19.0673C273.608 19.0673 269.058 18.9839 264.658 18.9469C260.258 18.8821 256.008 18.8172 251.968 18.7616C247.938 18.706 244.118 18.6134 240.598 18.5208C233.558 18.3633 227.688 18.1132 223.588 17.9928C221.538 17.9372 219.918 17.8446 218.818 17.7983C217.718 17.7519 217.128 17.7241 217.128 17.7241Z" fill="#FFE55E"/>
<path d="M359.078 17.7241L355.358 22.6892L379.288 17.7241L355.358 12.7497L359.078 17.7241Z" fill="#FFE55E"/>
<path d="M347.528 17.7241L344.718 21.4757L362.808 17.7241L344.718 13.9632L347.528 17.7241Z" fill="#FFE55E"/>
<path d="M315.108 17.8631C313.738 16.8163 312.248 15.9178 310.748 15.0656C309.988 14.6487 309.218 14.2504 308.428 13.8799C307.648 13.5093 306.848 13.1666 306.038 12.8517C305.228 12.5274 304.408 12.2495 303.588 11.9716C302.748 11.7308 301.928 11.4436 301.078 11.2584C300.238 11.0361 299.388 10.8601 298.528 10.7026L298.208 10.6377C298.208 10.6377 298.058 10.6099 298.088 10.6192L297.918 10.6007L297.258 10.5358C296.828 10.508 296.358 10.4154 295.948 10.4432C295.118 10.471 294.308 10.4525 293.458 10.6099C292.608 10.684 291.788 10.9156 290.958 11.1009C290.148 11.351 289.328 11.5733 288.538 11.9068L287.358 12.3792L286.208 12.9258C285.438 13.287 284.688 13.6946 283.958 14.1115C283.218 14.5376 282.498 14.9822 281.798 15.4546C281.098 15.9271 280.408 16.418 279.738 16.9275C279.078 17.437 278.398 17.9742 277.808 18.5022L277.768 18.53H277.748C277.268 18.8913 276.848 19.1599 276.378 19.4286C275.918 19.6972 275.448 19.9288 274.978 20.1696C274.018 20.6235 273.028 21.0033 272.008 21.3183C271.488 21.4572 270.988 21.624 270.458 21.7259C269.928 21.8278 269.408 21.9482 268.878 22.0223L267.278 22.1983C266.738 22.2261 266.198 22.2261 265.668 22.2353C265.128 22.2631 264.598 22.1798 264.058 22.1427C263.518 22.0964 262.988 22.0686 262.458 21.9482L260.878 21.6518L259.348 21.1979C258.838 21.0589 258.328 20.8922 257.848 20.6698L256.388 20.0585C255.898 19.8639 255.468 19.5768 254.998 19.3452L253.628 18.5949L252.478 17.965L253.518 17.1869C254.268 16.6218 254.978 16.1586 255.748 15.714C256.498 15.2508 257.288 14.871 258.058 14.4635C258.858 14.1115 259.638 13.7131 260.468 13.4074C261.288 13.1018 262.098 12.7498 262.948 12.5089C263.788 12.2588 264.628 11.9624 265.488 11.7864C266.348 11.6104 267.198 11.3417 268.078 11.2306C268.948 11.1009 269.818 10.9527 270.698 10.8415L273.338 10.647C274.218 10.5729 275.098 10.647 275.978 10.647L277.298 10.6655C277.738 10.6933 278.178 10.7489 278.608 10.7859C279.478 10.8786 280.358 10.9527 281.228 11.0638L283.798 11.5733L285.078 11.8327L286.328 12.194L288.828 12.9258C289.658 13.1573 290.448 13.5279 291.248 13.8336L293.638 14.7969L291.168 14.0374C290.338 13.8058 289.548 13.4816 288.698 13.3056L286.178 12.7312L284.918 12.4533L283.638 12.2773L281.088 11.9346L278.518 11.7956C278.088 11.7771 277.668 11.7401 277.238 11.7308L275.958 11.7679C275.108 11.8142 274.248 11.7771 273.408 11.8883L270.868 12.1662C270.028 12.2959 269.198 12.4719 268.368 12.6201C267.528 12.7498 266.728 13.0277 265.908 13.2314C265.088 13.4167 264.298 13.7317 263.498 13.991C262.688 14.2319 261.928 14.5839 261.158 14.8896C260.378 15.1953 259.648 15.5936 258.888 15.9363C258.168 16.3346 257.428 16.7144 256.738 17.1591C256.038 17.5759 255.348 18.0669 254.758 18.5208L254.648 17.1128L255.928 17.7982C256.358 18.0113 256.768 18.2799 257.218 18.4559L258.558 19.0025C258.998 19.2063 259.458 19.3452 259.928 19.4749L261.318 19.8825L262.748 20.1418C263.218 20.253 263.708 20.2715 264.188 20.3086C264.668 20.3364 265.148 20.4105 265.638 20.3827C266.118 20.3642 266.608 20.3827 267.088 20.3549L268.528 20.2067C269.008 20.1418 269.478 20.0307 269.958 19.9473C270.438 19.8547 270.888 19.7065 271.358 19.586C272.278 19.3081 273.178 18.9654 274.048 18.5671C274.478 18.354 274.908 18.1502 275.318 17.9094C275.728 17.6871 276.138 17.4184 276.468 17.1776L276.418 17.2239C277.108 16.6218 277.798 16.1031 278.518 15.5751C279.228 15.0563 279.968 14.5654 280.708 14.0837C281.458 13.6112 282.218 13.1573 282.998 12.722C283.778 12.2959 284.578 11.879 285.398 11.5177L286.628 10.9712L287.908 10.508C288.748 10.1838 289.648 9.97078 290.528 9.72993C291.428 9.55393 292.318 9.34088 293.248 9.2853C294.148 9.15561 295.118 9.1834 296.058 9.20193C296.538 9.20193 296.948 9.31309 297.388 9.3594L298.048 9.45204L298.208 9.47983C298.348 9.49835 298.338 9.50762 298.418 9.52614L298.748 9.60025C299.628 9.80404 300.498 10.0171 301.348 10.2857C302.208 10.5266 303.048 10.8415 303.878 11.1472C304.698 11.4807 305.528 11.8142 306.318 12.194C307.118 12.5645 307.908 12.9628 308.668 13.3889C309.438 13.8058 310.188 14.2597 310.928 14.7228C312.398 15.6584 313.798 16.6959 315.058 17.8538L315.108 17.8631Z" fill="#FFE55E"/>
<path d="M315.108 17.5758C313.848 18.7337 312.448 19.7712 310.978 20.7068C310.248 21.1792 309.488 21.6239 308.718 22.0407C307.948 22.4668 307.168 22.8651 306.368 23.2357C305.568 23.6155 304.748 23.9582 303.928 24.2824C303.098 24.5881 302.258 24.9031 301.398 25.1439C300.548 25.4125 299.678 25.6256 298.798 25.8294L298.468 25.9035C298.398 25.922 298.398 25.922 298.258 25.9498L298.098 25.9776L297.438 26.0702C296.988 26.1165 296.578 26.2277 296.108 26.2277C295.158 26.2462 294.198 26.274 293.298 26.1443C292.368 26.0887 291.478 25.8664 290.578 25.6997C289.698 25.4588 288.808 25.2458 287.958 24.9216L286.678 24.4584L285.448 23.9119C284.628 23.5506 283.838 23.1338 283.048 22.7077C282.268 22.2815 281.508 21.8276 280.758 21.346C280.018 20.8643 279.278 20.3733 278.568 19.8546C277.858 19.3266 277.158 18.8171 276.468 18.2057L276.518 18.252C276.188 18.0204 275.768 17.7425 275.368 17.5202C274.958 17.2794 274.528 17.0756 274.098 16.8625C273.228 16.4642 272.328 16.1122 271.408 15.8436C270.938 15.7232 270.478 15.5749 270.008 15.4823C269.528 15.3989 269.058 15.2878 268.578 15.2229L267.138 15.0747C266.658 15.0469 266.168 15.0655 265.688 15.0469C265.208 15.0099 264.718 15.0933 264.238 15.121C263.758 15.1581 263.268 15.1859 262.798 15.2878L261.368 15.5472L259.978 15.9547C259.508 16.0844 259.048 16.2234 258.608 16.4272L257.268 16.9737C256.818 17.1497 256.408 17.4183 255.978 17.6314L254.698 18.3169L254.808 16.9089C255.398 17.3628 256.088 17.8537 256.788 18.2706C257.478 18.7152 258.218 19.095 258.938 19.4933C259.698 19.836 260.428 20.2344 261.208 20.5401C261.988 20.8457 262.748 21.1977 263.548 21.4386C264.348 21.698 265.128 22.0129 265.958 22.1982C266.778 22.3927 267.578 22.6706 268.418 22.8096C269.248 22.9578 270.078 23.1338 270.918 23.2635L273.458 23.5414C274.308 23.6525 275.158 23.6155 276.008 23.6618L277.288 23.6988C277.718 23.6988 278.138 23.6525 278.568 23.634L281.138 23.495L283.688 23.1523L284.968 22.9763L286.228 22.6984L288.748 22.1241C289.588 21.9481 290.388 21.6239 291.218 21.3923L293.688 20.6327L291.298 21.5961C290.498 21.9018 289.708 22.2723 288.878 22.5039L286.378 23.2357L285.128 23.5969L283.848 23.8563L281.278 24.3658C280.408 24.4769 279.538 24.551 278.658 24.6437C278.218 24.6807 277.788 24.7363 277.348 24.7641L276.028 24.7826C275.148 24.7826 274.258 24.8475 273.388 24.7826L270.748 24.5881C269.868 24.4769 268.998 24.3287 268.128 24.199C267.248 24.0879 266.408 23.8285 265.538 23.6432C264.668 23.4672 263.838 23.1801 262.998 22.9207C262.148 22.6799 261.338 22.3279 260.518 22.0222C259.688 21.7165 258.918 21.3182 258.108 20.9662C257.338 20.5586 256.548 20.1788 255.798 19.7156C255.028 19.271 254.318 18.8078 253.568 18.2428L252.528 17.4647L253.678 16.8347L255.048 16.0844C255.508 15.8436 255.948 15.5657 256.438 15.3712L257.898 14.7598C258.378 14.5375 258.878 14.38 259.398 14.2318L260.928 13.7779L262.508 13.4814C263.028 13.361 263.568 13.324 264.108 13.2869C264.648 13.2499 265.178 13.1665 265.718 13.1943C266.258 13.2036 266.798 13.1943 267.328 13.2313L268.928 13.4073C269.458 13.4907 269.978 13.6111 270.508 13.7038C271.038 13.8057 271.538 13.9817 272.058 14.1114C273.078 14.4263 274.068 14.8061 275.028 15.26C275.498 15.4916 275.978 15.7324 276.428 16.0011C276.898 16.2697 277.318 16.5383 277.798 16.8903H277.818L277.858 16.9366C278.448 17.4647 279.128 18.0019 279.788 18.5114C280.458 19.0209 281.148 19.5118 281.848 19.9843C282.558 20.4567 283.268 20.9013 284.008 21.3274C284.748 21.7443 285.488 22.1519 286.258 22.5131L287.408 23.0597L288.588 23.5321C289.378 23.8563 290.198 24.0879 291.008 24.338C291.838 24.5233 292.658 24.7548 293.508 24.8289C294.358 24.9864 295.178 24.9679 295.998 24.9957C296.408 25.0235 296.868 24.9308 297.308 24.9031L297.968 24.8382L298.138 24.8197C298.138 24.8197 298.218 24.8012 298.258 24.8012L298.578 24.7363C299.438 24.5788 300.288 24.4121 301.128 24.1805C301.978 23.9953 302.798 23.7081 303.638 23.4672C304.458 23.1893 305.288 22.9115 306.088 22.5872C306.898 22.2723 307.698 21.9295 308.478 21.559C309.268 21.1885 310.038 20.7994 310.798 20.3733C312.308 19.5211 313.798 18.6318 315.158 17.5758H315.108Z" fill="#FFE55E"/>
<path d="M189.078 0.864807C191.278 4.23663 194.448 6.87666 197.958 8.91458C199.718 9.93354 201.558 10.8321 203.458 11.5917C204.408 11.9715 205.378 12.3142 206.348 12.6384C206.838 12.7959 207.318 12.9534 207.808 13.0923C208.288 13.2313 208.798 13.3702 209.258 13.4814L208.968 13.4443L214.778 13.3054L220.588 13.222L219.848 15.5471C217.688 14.2965 215.768 12.5828 214.478 10.4801C213.818 9.44259 213.318 8.32173 212.968 7.16383C212.788 6.58024 212.658 5.99665 212.558 5.39454C212.508 5.09812 212.478 4.79243 212.448 4.48674C212.428 4.16253 212.408 3.90316 212.418 3.49557L213.898 4.94991C211.338 4.96843 208.778 4.94991 206.218 4.94064L198.538 4.90359L199.608 2.69893C200.068 3.17136 200.718 3.71789 201.338 4.18106C201.968 4.65348 202.638 5.09812 203.338 5.5057C204.728 6.32087 206.218 6.99709 207.768 7.50657C209.318 8.03457 210.928 8.39584 212.578 8.5811C212.988 8.63668 213.408 8.65521 213.818 8.69226L214.438 8.72005L214.838 8.73858L215.198 8.77563C216.108 8.88679 216.988 9.05353 217.868 9.25732C221.348 10.0725 224.748 11.3786 227.578 13.4536C228.998 14.4818 230.248 15.6953 231.238 17.0755C231.718 17.7703 232.178 18.4835 232.508 19.2431C232.868 19.9934 233.128 20.7716 233.348 21.5497C233.018 20.7993 232.658 20.0676 232.208 19.3821C231.778 18.6873 231.268 18.0482 230.728 17.4275C229.628 16.214 228.318 15.1858 226.908 14.3243C224.058 12.6199 220.788 11.5824 217.468 11.0359C216.638 10.9062 215.798 10.795 214.978 10.7302L214.688 10.7117H214.648H214.628C214.658 10.7117 214.538 10.7117 214.698 10.7117H214.688H214.598H214.428H213.748C213.288 10.6931 212.838 10.6931 212.378 10.6561C210.548 10.5357 208.738 10.23 206.978 9.72049C205.228 9.20174 203.538 8.49774 201.948 7.62699C201.158 7.19162 200.388 6.71919 199.648 6.20045C198.898 5.66318 198.228 5.1537 197.488 4.44969L195.218 2.26356L198.548 2.24503L206.228 2.20798C208.788 2.19872 211.348 2.17093 213.908 2.19872L215.458 2.21724L215.388 3.65305C215.388 3.792 215.388 4.07916 215.408 4.30148C215.428 4.54232 215.448 4.78317 215.488 5.01475C215.558 5.49644 215.668 5.97813 215.808 6.45055C216.088 7.39541 216.488 8.31247 217.008 9.16469C218.048 10.8691 219.548 12.3235 221.348 13.4443L225.198 15.8342L220.608 15.7694L214.798 15.686L208.988 15.5471H208.808L208.698 15.51C208.138 15.3526 207.638 15.1858 207.128 15.0098C206.618 14.8338 206.118 14.6485 205.618 14.454C204.618 14.065 203.648 13.6296 202.688 13.1664C200.778 12.2401 198.918 11.2026 197.198 9.98912C195.488 8.77563 193.868 7.43246 192.488 5.89476C191.788 5.13517 191.158 4.32927 190.588 3.49557C190.308 3.06946 190.038 2.64335 189.798 2.20798C189.538 1.77261 189.338 1.31871 189.108 0.87407L189.078 0.864807Z" fill="#FFE55E"/>
<path d="M189.078 34.5739C189.308 34.1292 189.508 33.6753 189.768 33.24C190.008 32.7953 190.278 32.3692 190.558 31.9524C191.128 31.1187 191.758 30.3035 192.458 29.5532C193.838 28.0247 195.448 26.6816 197.168 25.4588C198.888 24.2453 200.738 23.2078 202.658 22.2815C203.618 21.8184 204.588 21.383 205.588 20.9939C206.088 20.7994 206.588 20.6141 207.098 20.4381C207.618 20.2621 208.108 20.0954 208.668 19.9379L208.778 19.9101H208.958L214.768 19.7712L220.578 19.6878L225.168 19.623L221.318 22.0129C219.518 23.1337 218.018 24.5881 216.978 26.2925C216.458 27.1447 216.058 28.0618 215.778 29.0066C215.638 29.4791 215.528 29.9608 215.458 30.4425C215.418 30.6833 215.398 30.9241 215.378 31.1557C215.358 31.378 215.358 31.6559 215.358 31.8042L215.428 33.24L213.878 33.2585C211.318 33.277 208.758 33.2585 206.198 33.2492L198.518 33.2122L195.188 33.1936L197.458 31.0075C198.188 30.3035 198.868 29.794 199.618 29.2568C200.358 28.738 201.128 28.2656 201.918 27.8302C203.508 26.9595 205.198 26.2555 206.948 25.7367C208.708 25.2272 210.528 24.9216 212.348 24.8011C212.808 24.7641 213.258 24.7641 213.718 24.7456H214.398H214.568H214.658H214.668C214.508 24.7456 214.628 24.7456 214.598 24.7456H214.618H214.658L214.948 24.727C215.768 24.6622 216.608 24.551 217.438 24.4213C220.758 23.8655 224.028 22.8373 226.878 21.1329C228.288 20.2714 229.598 19.2432 230.698 18.0297C231.238 17.4183 231.748 16.7699 232.178 16.0751C232.628 15.3897 232.988 14.6579 233.318 13.9075C233.098 14.6856 232.838 15.473 232.478 16.2141C232.148 16.9737 231.688 17.6869 231.208 18.3817C230.218 19.7527 228.968 20.9754 227.548 22.0036C224.718 24.0786 221.318 25.3847 217.838 26.1999C216.958 26.4037 216.078 26.5704 215.168 26.6816L214.808 26.7186L214.408 26.7372L213.788 26.7649C213.378 26.802 212.958 26.8205 212.548 26.8761C210.898 27.0614 209.288 27.4226 207.738 27.9506C206.188 28.4601 204.698 29.1363 203.308 29.9515C202.618 30.3591 201.948 30.8037 201.308 31.2762C200.688 31.7393 200.038 32.2858 199.578 32.7583L198.508 30.5536L206.188 30.5166C208.748 30.5073 211.308 30.4795 213.868 30.5073L212.388 31.9616C212.378 31.554 212.388 31.2947 212.418 30.9705C212.448 30.6648 212.478 30.3591 212.528 30.0627C212.628 29.4606 212.768 28.877 212.938 28.2934C213.288 27.1355 213.798 26.0146 214.448 24.9771C215.738 22.8744 217.668 21.1514 219.818 19.9101L220.558 22.2352L214.748 22.1518L208.938 22.0129L209.228 21.9758C208.778 22.0777 208.258 22.2259 207.778 22.3649C207.288 22.5038 206.798 22.6613 206.318 22.8188C205.348 23.1523 204.378 23.4857 203.428 23.8655C201.528 24.6251 199.688 25.5237 197.928 26.5426C194.418 28.5805 191.248 31.2206 189.048 34.5924L189.078 34.5739Z" fill="#FFE55E"/>
<path d="M235.928 17.7242C235.928 18.9098 236.968 19.8732 238.248 19.8732C239.528 19.8732 240.568 18.9098 240.568 17.7242C240.568 16.5385 239.528 15.5751 238.248 15.5751C236.968 15.5751 235.928 16.5385 235.928 17.7242Z" fill="#FFE55E"/>
<path d="M245.228 19.1599C246.084 19.1599 246.778 18.517 246.778 17.7241C246.778 16.9311 246.084 16.2883 245.228 16.2883C244.372 16.2883 243.678 16.9311 243.678 17.7241C243.678 18.517 244.372 19.1599 245.228 19.1599Z" fill="#FFE55E"/>
<path d="M189.998 21.7351C192.39 21.7351 194.328 19.9393 194.328 17.7241C194.328 15.5089 192.39 13.7131 189.998 13.7131C187.607 13.7131 185.668 15.5089 185.668 17.7241C185.668 19.9393 187.607 21.7351 189.998 21.7351Z" fill="#FFE55E"/>
</svg>